<mxfile host="app.diagrams.net" agent="Mozilla/5.0 (Windows NT 10.0; Win64; x64) AppleWebKit/537.36 (KHTML, like Gecko) Chrome/127.0.0.0 Safari/537.36" version="24.7.6">
  <diagram name="Page-1" id="-tEXdlbGW9X-dPia48ii">
    <mxGraphModel dx="1443" dy="767" grid="1" gridSize="10" guides="1" tooltips="1" connect="1" arrows="1" fold="1" page="1" pageScale="1" pageWidth="850" pageHeight="1100" math="0" shadow="0">
      <root>
        <mxCell id="0" />
        <mxCell id="1" parent="0" />
        <mxCell id="S8Y97QCJqvmQgOxsQppN-1" value="&lt;b&gt;&lt;font style=&quot;font-size: 17px;&quot;&gt;Customer&lt;/font&gt;&lt;/b&gt;" style="rounded=0;whiteSpace=wrap;html=1;" parent="1" vertex="1">
          <mxGeometry x="10" y="490" width="130" height="40" as="geometry" />
        </mxCell>
        <mxCell id="S8Y97QCJqvmQgOxsQppN-3" value="&lt;b&gt;&lt;font style=&quot;font-size: 17px;&quot;&gt;Counter Staff&lt;/font&gt;&lt;/b&gt;" style="rounded=0;whiteSpace=wrap;html=1;" parent="1" vertex="1">
          <mxGeometry x="710" y="490" width="130" height="40" as="geometry" />
        </mxCell>
        <mxCell id="S8Y97QCJqvmQgOxsQppN-4" value="&lt;b&gt;&lt;font style=&quot;font-size: 17px;&quot;&gt;Admin&lt;/font&gt;&lt;/b&gt;" style="rounded=0;whiteSpace=wrap;html=1;" parent="1" vertex="1">
          <mxGeometry x="380" y="200" width="150" height="40" as="geometry" />
        </mxCell>
        <mxCell id="S8Y97QCJqvmQgOxsQppN-7" value="" style="endArrow=none;html=1;rounded=0;exitX=0;exitY=0;exitDx=0;exitDy=0;entryX=1;entryY=0;entryDx=0;entryDy=0;" parent="1" source="S8Y97QCJqvmQgOxsQppN-5" target="S8Y97QCJqvmQgOxsQppN-5" edge="1">
          <mxGeometry width="50" height="50" relative="1" as="geometry">
            <mxPoint x="365" y="550" as="sourcePoint" />
            <mxPoint x="415" y="500" as="targetPoint" />
          </mxGeometry>
        </mxCell>
        <mxCell id="S8Y97QCJqvmQgOxsQppN-8" value="0.0" style="text;html=1;align=center;verticalAlign=middle;resizable=0;points=[];autosize=1;strokeColor=none;fillColor=none;fontStyle=1;fontSize=17;" parent="1" vertex="1">
          <mxGeometry x="420" y="420" width="50" height="30" as="geometry" />
        </mxCell>
        <mxCell id="S8Y97QCJqvmQgOxsQppN-19" value="" style="endArrow=classic;html=1;rounded=0;exitX=1;exitY=0;exitDx=0;exitDy=0;entryX=0.04;entryY=0.272;entryDx=0;entryDy=0;entryPerimeter=0;" parent="1" source="S8Y97QCJqvmQgOxsQppN-1" target="S8Y97QCJqvmQgOxsQppN-5" edge="1">
          <mxGeometry width="50" height="50" relative="1" as="geometry">
            <mxPoint x="320" y="550" as="sourcePoint" />
            <mxPoint x="360" y="470" as="targetPoint" />
            <Array as="points">
              <mxPoint x="200" y="470" />
            </Array>
          </mxGeometry>
        </mxCell>
        <mxCell id="S8Y97QCJqvmQgOxsQppN-20" value="Registration Request" style="edgeLabel;html=1;align=center;verticalAlign=middle;resizable=0;points=[];rotation=0;" parent="S8Y97QCJqvmQgOxsQppN-19" vertex="1" connectable="0">
          <mxGeometry x="0.4192" y="1" relative="1" as="geometry">
            <mxPoint x="-23" as="offset" />
          </mxGeometry>
        </mxCell>
        <mxCell id="S8Y97QCJqvmQgOxsQppN-21" value="" style="endArrow=classic;html=1;rounded=0;entryX=0;entryY=0.378;entryDx=0;entryDy=0;entryPerimeter=0;exitX=1;exitY=0.25;exitDx=0;exitDy=0;" parent="1" source="S8Y97QCJqvmQgOxsQppN-1" target="S8Y97QCJqvmQgOxsQppN-5" edge="1">
          <mxGeometry width="50" height="50" relative="1" as="geometry">
            <mxPoint x="150" y="520" as="sourcePoint" />
            <mxPoint x="350" y="485" as="targetPoint" />
            <Array as="points">
              <mxPoint x="200" y="485" />
            </Array>
          </mxGeometry>
        </mxCell>
        <mxCell id="S8Y97QCJqvmQgOxsQppN-22" value="Logn Request" style="edgeLabel;html=1;align=center;verticalAlign=middle;resizable=0;points=[];rotation=0;" parent="S8Y97QCJqvmQgOxsQppN-21" vertex="1" connectable="0">
          <mxGeometry x="0.4192" y="1" relative="1" as="geometry">
            <mxPoint x="-23" as="offset" />
          </mxGeometry>
        </mxCell>
        <mxCell id="S8Y97QCJqvmQgOxsQppN-25" value="" style="endArrow=classic;html=1;rounded=0;exitX=1;exitY=0.25;exitDx=0;exitDy=0;entryX=-0.01;entryY=0.461;entryDx=0;entryDy=0;entryPerimeter=0;" parent="1" source="S8Y97QCJqvmQgOxsQppN-1" target="S8Y97QCJqvmQgOxsQppN-5" edge="1">
          <mxGeometry width="50" height="50" relative="1" as="geometry">
            <mxPoint x="150" y="520" as="sourcePoint" />
            <mxPoint x="350" y="500" as="targetPoint" />
            <Array as="points">
              <mxPoint x="200" y="500" />
            </Array>
          </mxGeometry>
        </mxCell>
        <mxCell id="S8Y97QCJqvmQgOxsQppN-26" value="Bill Request" style="edgeLabel;html=1;align=center;verticalAlign=middle;resizable=0;points=[];rotation=0;" parent="S8Y97QCJqvmQgOxsQppN-25" vertex="1" connectable="0">
          <mxGeometry x="0.4192" y="1" relative="1" as="geometry">
            <mxPoint x="-23" as="offset" />
          </mxGeometry>
        </mxCell>
        <mxCell id="S8Y97QCJqvmQgOxsQppN-27" value="" style="endArrow=classic;html=1;rounded=0;exitX=1;exitY=0.25;exitDx=0;exitDy=0;entryX=0.01;entryY=0.55;entryDx=0;entryDy=0;entryPerimeter=0;" parent="1" source="S8Y97QCJqvmQgOxsQppN-1" target="S8Y97QCJqvmQgOxsQppN-5" edge="1">
          <mxGeometry width="50" height="50" relative="1" as="geometry">
            <mxPoint x="150" y="530" as="sourcePoint" />
            <mxPoint x="350" y="515" as="targetPoint" />
            <Array as="points">
              <mxPoint x="200" y="515" />
            </Array>
          </mxGeometry>
        </mxCell>
        <mxCell id="S8Y97QCJqvmQgOxsQppN-39" value="Changes in Info request" style="edgeLabel;html=1;align=center;verticalAlign=middle;resizable=0;points=[];" parent="S8Y97QCJqvmQgOxsQppN-27" vertex="1" connectable="0">
          <mxGeometry x="0.2977" y="-3" relative="1" as="geometry">
            <mxPoint as="offset" />
          </mxGeometry>
        </mxCell>
        <mxCell id="S8Y97QCJqvmQgOxsQppN-29" value="" style="endArrow=classic;html=1;rounded=0;entryX=1;entryY=0.75;entryDx=0;entryDy=0;exitX=0;exitY=0.611;exitDx=0;exitDy=0;exitPerimeter=0;" parent="1" target="S8Y97QCJqvmQgOxsQppN-1" edge="1">
          <mxGeometry width="50" height="50" relative="1" as="geometry">
            <mxPoint x="370" y="550" as="sourcePoint" />
            <mxPoint x="170" y="560.02" as="targetPoint" />
            <Array as="points">
              <mxPoint x="220" y="550.02" />
              <mxPoint x="150" y="550" />
            </Array>
          </mxGeometry>
        </mxCell>
        <mxCell id="S8Y97QCJqvmQgOxsQppN-30" value="Gets Card and Password" style="edgeLabel;html=1;align=center;verticalAlign=middle;resizable=0;points=[];" parent="S8Y97QCJqvmQgOxsQppN-29" vertex="1" connectable="0">
          <mxGeometry x="-0.0447" y="4" relative="1" as="geometry">
            <mxPoint x="32" y="-4" as="offset" />
          </mxGeometry>
        </mxCell>
        <mxCell id="S8Y97QCJqvmQgOxsQppN-32" value="" style="endArrow=classic;html=1;rounded=0;entryX=0.808;entryY=1;entryDx=0;entryDy=0;entryPerimeter=0;exitX=0.115;exitY=0.806;exitDx=0;exitDy=0;exitPerimeter=0;" parent="1" source="S8Y97QCJqvmQgOxsQppN-5" target="S8Y97QCJqvmQgOxsQppN-1" edge="1">
          <mxGeometry width="50" height="50" relative="1" as="geometry">
            <mxPoint x="360" y="580" as="sourcePoint" />
            <mxPoint x="133.01" y="560" as="targetPoint" />
            <Array as="points">
              <mxPoint x="250" y="570" />
              <mxPoint x="130" y="565" />
            </Array>
          </mxGeometry>
        </mxCell>
        <mxCell id="S8Y97QCJqvmQgOxsQppN-33" value="Bill Recieved" style="edgeLabel;html=1;align=center;verticalAlign=middle;resizable=0;points=[];" parent="S8Y97QCJqvmQgOxsQppN-32" vertex="1" connectable="0">
          <mxGeometry x="-0.0447" y="4" relative="1" as="geometry">
            <mxPoint x="38" y="-4" as="offset" />
          </mxGeometry>
        </mxCell>
        <mxCell id="S8Y97QCJqvmQgOxsQppN-34" value="" style="endArrow=classic;html=1;rounded=0;exitX=1;exitY=0.25;exitDx=0;exitDy=0;" parent="1" source="S8Y97QCJqvmQgOxsQppN-5" edge="1">
          <mxGeometry width="50" height="50" relative="1" as="geometry">
            <mxPoint x="160" y="540" as="sourcePoint" />
            <mxPoint x="360" y="525" as="targetPoint" />
            <Array as="points" />
          </mxGeometry>
        </mxCell>
        <mxCell id="S8Y97QCJqvmQgOxsQppN-36" value="" style="endArrow=classic;html=1;rounded=0;exitX=1;exitY=0.25;exitDx=0;exitDy=0;entryX=0.025;entryY=0.628;entryDx=0;entryDy=0;entryPerimeter=0;" parent="1" source="S8Y97QCJqvmQgOxsQppN-1" target="S8Y97QCJqvmQgOxsQppN-5" edge="1">
          <mxGeometry width="50" height="50" relative="1" as="geometry">
            <mxPoint x="151" y="545" as="sourcePoint" />
            <mxPoint x="360" y="536.06" as="targetPoint" />
            <Array as="points">
              <mxPoint x="201" y="535" />
            </Array>
          </mxGeometry>
        </mxCell>
        <mxCell id="S8Y97QCJqvmQgOxsQppN-40" value="Payment" style="edgeLabel;html=1;align=center;verticalAlign=middle;resizable=0;points=[];" parent="S8Y97QCJqvmQgOxsQppN-36" vertex="1" connectable="0">
          <mxGeometry x="0.311" relative="1" as="geometry">
            <mxPoint as="offset" />
          </mxGeometry>
        </mxCell>
        <mxCell id="S8Y97QCJqvmQgOxsQppN-5" value="&lt;div&gt;&lt;br&gt;&lt;/div&gt;&lt;div&gt;&lt;span style=&quot;background-color: initial;&quot;&gt;&amp;nbsp; ARMY CANTEEN&amp;nbsp; &amp;nbsp;MANAGEMENT&lt;/span&gt;&lt;br&gt;&lt;/div&gt;&lt;div style=&quot;font-size: 20px;&quot;&gt;&amp;nbsp; (CDS)&amp;nbsp;&lt;div style=&quot;font-size: 20px;&quot;&gt;&amp;nbsp; SYSTEM&lt;/div&gt;&lt;/div&gt;" style="ellipse;whiteSpace=wrap;html=1;fontStyle=1;fontSize=20;align=center;verticalAlign=middle;" parent="1" vertex="1">
          <mxGeometry x="360" y="420" width="200" height="180" as="geometry" />
        </mxCell>
        <mxCell id="S8Y97QCJqvmQgOxsQppN-42" value="" style="endArrow=classic;html=1;rounded=0;exitX=1;exitY=0.401;exitDx=0;exitDy=0;exitPerimeter=0;entryX=0;entryY=0;entryDx=0;entryDy=0;" parent="1" source="S8Y97QCJqvmQgOxsQppN-5" target="S8Y97QCJqvmQgOxsQppN-3" edge="1">
          <mxGeometry width="50" height="50" relative="1" as="geometry">
            <mxPoint x="600" y="530" as="sourcePoint" />
            <mxPoint x="650" y="480" as="targetPoint" />
            <Array as="points" />
          </mxGeometry>
        </mxCell>
        <mxCell id="S8Y97QCJqvmQgOxsQppN-43" value="Bill Request Recieved" style="edgeLabel;html=1;align=center;verticalAlign=middle;resizable=0;points=[];rotation=0;" parent="S8Y97QCJqvmQgOxsQppN-42" vertex="1" connectable="0">
          <mxGeometry x="0.0344" y="-1" relative="1" as="geometry">
            <mxPoint x="-7" as="offset" />
          </mxGeometry>
        </mxCell>
        <mxCell id="S8Y97QCJqvmQgOxsQppN-48" value="" style="endArrow=classic;html=1;rounded=0;entryX=1.005;entryY=0.623;entryDx=0;entryDy=0;entryPerimeter=0;exitX=0;exitY=0.5;exitDx=0;exitDy=0;" parent="1" target="S8Y97QCJqvmQgOxsQppN-5" edge="1">
          <mxGeometry width="50" height="50" relative="1" as="geometry">
            <mxPoint x="710" y="530" as="sourcePoint" />
            <mxPoint x="556" y="516" as="targetPoint" />
            <Array as="points">
              <mxPoint x="630" y="530" />
              <mxPoint x="580" y="530" />
            </Array>
          </mxGeometry>
        </mxCell>
        <mxCell id="S8Y97QCJqvmQgOxsQppN-49" value="Update To System" style="edgeLabel;html=1;align=center;verticalAlign=middle;resizable=0;points=[];" parent="S8Y97QCJqvmQgOxsQppN-48" vertex="1" connectable="0">
          <mxGeometry x="0.0087" y="-2" relative="1" as="geometry">
            <mxPoint x="19" y="2" as="offset" />
          </mxGeometry>
        </mxCell>
        <mxCell id="S8Y97QCJqvmQgOxsQppN-50" value="" style="endArrow=classic;html=1;rounded=0;entryX=1;entryY=0.5;entryDx=0;entryDy=0;" parent="1" source="S8Y97QCJqvmQgOxsQppN-3" target="S8Y97QCJqvmQgOxsQppN-5" edge="1">
          <mxGeometry width="50" height="50" relative="1" as="geometry">
            <mxPoint x="600" y="550" as="sourcePoint" />
            <mxPoint x="650" y="500" as="targetPoint" />
          </mxGeometry>
        </mxCell>
        <mxCell id="S8Y97QCJqvmQgOxsQppN-51" value="Create Bill" style="edgeLabel;html=1;align=center;verticalAlign=middle;resizable=0;points=[];" parent="S8Y97QCJqvmQgOxsQppN-50" vertex="1" connectable="0">
          <mxGeometry x="-0.074" y="-2" relative="1" as="geometry">
            <mxPoint as="offset" />
          </mxGeometry>
        </mxCell>
        <mxCell id="S8Y97QCJqvmQgOxsQppN-52" value="" style="endArrow=classic;html=1;rounded=0;entryX=0.058;entryY=1.043;entryDx=0;entryDy=0;entryPerimeter=0;" parent="1" source="S8Y97QCJqvmQgOxsQppN-5" target="S8Y97QCJqvmQgOxsQppN-4" edge="1">
          <mxGeometry width="50" height="50" relative="1" as="geometry">
            <mxPoint x="610" y="470" as="sourcePoint" />
            <mxPoint x="660" y="420" as="targetPoint" />
            <Array as="points">
              <mxPoint x="390" y="420" />
            </Array>
          </mxGeometry>
        </mxCell>
        <mxCell id="S8Y97QCJqvmQgOxsQppN-53" value="Gets Document to verify" style="edgeLabel;html=1;align=center;verticalAlign=middle;resizable=0;points=[];rotation=-90;" parent="S8Y97QCJqvmQgOxsQppN-52" vertex="1" connectable="0">
          <mxGeometry x="-0.1368" y="1" relative="1" as="geometry">
            <mxPoint y="-25" as="offset" />
          </mxGeometry>
        </mxCell>
        <mxCell id="S8Y97QCJqvmQgOxsQppN-56" value="" style="endArrow=classic;html=1;rounded=0;entryX=0.058;entryY=1.043;entryDx=0;entryDy=0;entryPerimeter=0;exitX=0.244;exitY=0.072;exitDx=0;exitDy=0;exitPerimeter=0;" parent="1" source="S8Y97QCJqvmQgOxsQppN-5" edge="1">
          <mxGeometry width="50" height="50" relative="1" as="geometry">
            <mxPoint x="410" y="430" as="sourcePoint" />
            <mxPoint x="399.99999999999994" y="239.99999999999997" as="targetPoint" />
            <Array as="points">
              <mxPoint x="400.99999999999994" y="418" />
            </Array>
          </mxGeometry>
        </mxCell>
        <mxCell id="S8Y97QCJqvmQgOxsQppN-57" value="Bill history data" style="edgeLabel;html=1;align=center;verticalAlign=middle;resizable=0;points=[];rotation=-90;" parent="S8Y97QCJqvmQgOxsQppN-56" vertex="1" connectable="0">
          <mxGeometry x="-0.1368" y="1" relative="1" as="geometry">
            <mxPoint y="-25" as="offset" />
          </mxGeometry>
        </mxCell>
        <mxCell id="S8Y97QCJqvmQgOxsQppN-58" value="" style="endArrow=classic;html=1;rounded=0;exitX=0.292;exitY=0.039;exitDx=0;exitDy=0;exitPerimeter=0;" parent="1" source="S8Y97QCJqvmQgOxsQppN-5" edge="1">
          <mxGeometry width="50" height="50" relative="1" as="geometry">
            <mxPoint x="420" y="430" as="sourcePoint" />
            <mxPoint x="412" y="240" as="targetPoint" />
            <Array as="points">
              <mxPoint x="412.99999999999994" y="418" />
            </Array>
          </mxGeometry>
        </mxCell>
        <mxCell id="S8Y97QCJqvmQgOxsQppN-59" value="Order Reports" style="edgeLabel;html=1;align=center;verticalAlign=middle;resizable=0;points=[];rotation=-90;" parent="S8Y97QCJqvmQgOxsQppN-58" vertex="1" connectable="0">
          <mxGeometry x="-0.1368" y="1" relative="1" as="geometry">
            <mxPoint y="-25" as="offset" />
          </mxGeometry>
        </mxCell>
        <mxCell id="S8Y97QCJqvmQgOxsQppN-60" value="" style="endArrow=classic;html=1;rounded=0;entryX=0.29;entryY=1.043;entryDx=0;entryDy=0;entryPerimeter=0;exitX=0.313;exitY=0.043;exitDx=0;exitDy=0;exitPerimeter=0;" parent="1" source="S8Y97QCJqvmQgOxsQppN-5" target="S8Y97QCJqvmQgOxsQppN-4" edge="1">
          <mxGeometry width="50" height="50" relative="1" as="geometry">
            <mxPoint x="428" y="420" as="sourcePoint" />
            <mxPoint x="419.99999999999994" y="224" as="targetPoint" />
            <Array as="points" />
          </mxGeometry>
        </mxCell>
        <mxCell id="S8Y97QCJqvmQgOxsQppN-61" value="Inventory Info." style="edgeLabel;html=1;align=center;verticalAlign=middle;resizable=0;points=[];rotation=-90;" parent="S8Y97QCJqvmQgOxsQppN-60" vertex="1" connectable="0">
          <mxGeometry x="-0.1368" y="1" relative="1" as="geometry">
            <mxPoint y="-25" as="offset" />
          </mxGeometry>
        </mxCell>
        <mxCell id="S8Y97QCJqvmQgOxsQppN-62" value="" style="endArrow=classic;html=1;rounded=0;exitX=0.951;exitY=1.022;exitDx=0;exitDy=0;exitPerimeter=0;entryX=0.805;entryY=0.092;entryDx=0;entryDy=0;entryPerimeter=0;" parent="1" source="S8Y97QCJqvmQgOxsQppN-4" target="S8Y97QCJqvmQgOxsQppN-5" edge="1">
          <mxGeometry width="50" height="50" relative="1" as="geometry">
            <mxPoint x="460" y="380" as="sourcePoint" />
            <mxPoint x="510" y="330" as="targetPoint" />
          </mxGeometry>
        </mxCell>
        <mxCell id="S8Y97QCJqvmQgOxsQppN-63" value="Update Registration" style="edgeLabel;html=1;align=center;verticalAlign=middle;resizable=0;points=[];rotation=-90;" parent="S8Y97QCJqvmQgOxsQppN-62" vertex="1" connectable="0">
          <mxGeometry x="-0.1025" y="1" relative="1" as="geometry">
            <mxPoint as="offset" />
          </mxGeometry>
        </mxCell>
        <mxCell id="S8Y97QCJqvmQgOxsQppN-64" value="" style="endArrow=classic;html=1;rounded=0;entryX=0.805;entryY=0.092;entryDx=0;entryDy=0;entryPerimeter=0;exitX=0.858;exitY=0.978;exitDx=0;exitDy=0;exitPerimeter=0;" parent="1" source="S8Y97QCJqvmQgOxsQppN-4" edge="1">
          <mxGeometry width="50" height="50" relative="1" as="geometry">
            <mxPoint x="507" y="245" as="sourcePoint" />
            <mxPoint x="507" y="431" as="targetPoint" />
          </mxGeometry>
        </mxCell>
        <mxCell id="S8Y97QCJqvmQgOxsQppN-65" value="Stock Order update" style="edgeLabel;html=1;align=center;verticalAlign=middle;resizable=0;points=[];rotation=-90;" parent="S8Y97QCJqvmQgOxsQppN-64" vertex="1" connectable="0">
          <mxGeometry x="-0.1025" y="1" relative="1" as="geometry">
            <mxPoint as="offset" />
          </mxGeometry>
        </mxCell>
        <mxCell id="S8Y97QCJqvmQgOxsQppN-66" value="" style="endArrow=classic;html=1;rounded=0;entryX=0.805;entryY=0.092;entryDx=0;entryDy=0;entryPerimeter=0;" parent="1" edge="1">
          <mxGeometry width="50" height="50" relative="1" as="geometry">
            <mxPoint x="490" y="240" as="sourcePoint" />
            <mxPoint x="490" y="426" as="targetPoint" />
          </mxGeometry>
        </mxCell>
        <mxCell id="S8Y97QCJqvmQgOxsQppN-67" value="Maintain Balance Sheet" style="edgeLabel;html=1;align=center;verticalAlign=middle;resizable=0;points=[];rotation=-90;" parent="S8Y97QCJqvmQgOxsQppN-66" vertex="1" connectable="0">
          <mxGeometry x="-0.1025" y="1" relative="1" as="geometry">
            <mxPoint as="offset" />
          </mxGeometry>
        </mxCell>
        <mxCell id="S8Y97QCJqvmQgOxsQppN-68" value="" style="endArrow=classic;html=1;rounded=0;entryX=0.805;entryY=0.092;entryDx=0;entryDy=0;entryPerimeter=0;" parent="1" edge="1">
          <mxGeometry width="50" height="50" relative="1" as="geometry">
            <mxPoint x="470" y="240" as="sourcePoint" />
            <mxPoint x="470" y="420" as="targetPoint" />
          </mxGeometry>
        </mxCell>
        <mxCell id="S8Y97QCJqvmQgOxsQppN-69" value="Gives Access after verifying" style="edgeLabel;html=1;align=center;verticalAlign=middle;resizable=0;points=[];rotation=-90;" parent="S8Y97QCJqvmQgOxsQppN-68" vertex="1" connectable="0">
          <mxGeometry x="-0.1025" y="1" relative="1" as="geometry">
            <mxPoint as="offset" />
          </mxGeometry>
        </mxCell>
        <mxCell id="BF_TDqAbY5iaLtCfCGQi-1" value="&lt;span style=&quot;font-size: 17px;&quot;&gt;&lt;b&gt;Supplier&lt;/b&gt;&lt;/span&gt;" style="rounded=0;whiteSpace=wrap;html=1;" vertex="1" parent="1">
          <mxGeometry x="390" y="790" width="130" height="40" as="geometry" />
        </mxCell>
        <mxCell id="BF_TDqAbY5iaLtCfCGQi-4" value="" style="endArrow=classic;html=1;rounded=0;entryX=0.331;entryY=0;entryDx=0;entryDy=0;exitX=0.35;exitY=0.972;exitDx=0;exitDy=0;exitPerimeter=0;entryPerimeter=0;" edge="1" parent="1" source="S8Y97QCJqvmQgOxsQppN-5" target="BF_TDqAbY5iaLtCfCGQi-1">
          <mxGeometry width="50" height="50" relative="1" as="geometry">
            <mxPoint x="390" y="830" as="sourcePoint" />
            <mxPoint x="241" y="832" as="targetPoint" />
            <Array as="points" />
          </mxGeometry>
        </mxCell>
        <mxCell id="BF_TDqAbY5iaLtCfCGQi-5" value="Gets Order" style="edgeLabel;html=1;align=center;verticalAlign=middle;resizable=0;points=[];rotation=-90;" vertex="1" connectable="0" parent="BF_TDqAbY5iaLtCfCGQi-4">
          <mxGeometry x="0.0087" y="-2" relative="1" as="geometry">
            <mxPoint x="1" y="2" as="offset" />
          </mxGeometry>
        </mxCell>
        <mxCell id="BF_TDqAbY5iaLtCfCGQi-6" value="" style="endArrow=classic;html=1;rounded=0;exitX=0.75;exitY=0;exitDx=0;exitDy=0;entryX=0.635;entryY=0.989;entryDx=0;entryDy=0;entryPerimeter=0;" edge="1" parent="1" source="BF_TDqAbY5iaLtCfCGQi-1" target="S8Y97QCJqvmQgOxsQppN-5">
          <mxGeometry width="50" height="50" relative="1" as="geometry">
            <mxPoint x="280" y="850" as="sourcePoint" />
            <mxPoint x="240" y="810" as="targetPoint" />
          </mxGeometry>
        </mxCell>
        <mxCell id="BF_TDqAbY5iaLtCfCGQi-7" value="Supplies Order" style="edgeLabel;html=1;align=center;verticalAlign=middle;resizable=0;points=[];rotation=-91;" vertex="1" connectable="0" parent="BF_TDqAbY5iaLtCfCGQi-6">
          <mxGeometry x="-0.074" y="-2" relative="1" as="geometry">
            <mxPoint as="offset" />
          </mxGeometry>
        </mxCell>
        <mxCell id="BF_TDqAbY5iaLtCfCGQi-8" value="" style="endArrow=none;html=1;rounded=0;entryX=1;entryY=0;entryDx=0;entryDy=0;exitX=0;exitY=0;exitDx=0;exitDy=0;" edge="1" parent="1" source="S8Y97QCJqvmQgOxsQppN-5" target="S8Y97QCJqvmQgOxsQppN-5">
          <mxGeometry width="50" height="50" relative="1" as="geometry">
            <mxPoint x="500" y="530" as="sourcePoint" />
            <mxPoint x="550" y="480" as="targetPoint" />
          </mxGeometry>
        </mxCell>
        <mxCell id="BF_TDqAbY5iaLtCfCGQi-9" value="0.0" style="text;html=1;align=center;verticalAlign=middle;resizable=0;points=[];autosize=1;strokeColor=none;fillColor=none;fontSize=16;" vertex="1" parent="1">
          <mxGeometry x="435" y="420" width="50" height="30" as="geometry" />
        </mxCell>
        <mxCell id="BF_TDqAbY5iaLtCfCGQi-11" value="Context Level Data Flow Diagram" style="text;html=1;align=center;verticalAlign=middle;resizable=0;points=[];autosize=1;strokeColor=none;fillColor=none;fontStyle=1;fontSize=30;" vertex="1" parent="1">
          <mxGeometry x="220" y="20" width="470" height="50" as="geometry" />
        </mxCell>
      </root>
    </mxGraphModel>
  </diagram>
</mxfile>
